<svg xmlns="http://www.w3.org/2000/svg" viewBox="0 0 48.06 48.07"><defs><style>.cls-1{fill:#333;}.cls-2{fill:#fff;}</style></defs><g id="Capa_2" data-name="Capa 2"><g id="Capa_1-2" data-name="Capa 1"><path class="cls-1" d="M48.06,24A24,24,0,1,1,24,0a24,24,0,0,1,24,24"/><path class="cls-2" d="M37.23,18a9.75,9.75,0,0,0-.62-3.25,6.5,6.5,0,0,0-1.55-2.38,6.68,6.68,0,0,0-2.37-1.55,9.81,9.81,0,0,0-3.26-.62c-1.43-.07-1.89-.08-5.53-.08s-4.1,0-5.53.07a10,10,0,0,0-3.26.63,6.84,6.84,0,0,0-3.92,3.92A10,10,0,0,0,10.56,18c-.06,1.43-.08,1.89-.08,5.53s0,4.1.08,5.53a9.76,9.76,0,0,0,.62,3.26,6.72,6.72,0,0,0,1.55,2.38,6.64,6.64,0,0,0,2.38,1.54,9.75,9.75,0,0,0,3.25.62c1.43.07,1.89.08,5.53.08s4.1,0,5.53-.08a9.76,9.76,0,0,0,3.26-.62,6.88,6.88,0,0,0,3.92-3.92,9.81,9.81,0,0,0,.62-3.26c.07-1.43.08-1.89.08-5.53s0-4.1-.07-5.53ZM34.82,29a7.57,7.57,0,0,1-.46,2.49A4.46,4.46,0,0,1,31.81,34a7,7,0,0,1-2.49.46c-1.41.07-1.84.08-5.42.08s-4,0-5.42-.08A7.06,7.06,0,0,1,16,34a4,4,0,0,1-1.54-1,4.27,4.27,0,0,1-1-1.54A7.51,7.51,0,0,1,13,29c-.06-1.41-.08-1.84-.08-5.42s0-4,.08-5.42a7.57,7.57,0,0,1,.46-2.49,4.17,4.17,0,0,1,1-1.54,4.27,4.27,0,0,1,1.54-1,7.51,7.51,0,0,1,2.49-.46c1.41-.06,1.84-.08,5.42-.08s4,0,5.42.08a7.57,7.57,0,0,1,2.49.46,4.27,4.27,0,0,1,1.54,1,4.36,4.36,0,0,1,1,1.54,7.63,7.63,0,0,1,.46,2.49c.06,1.42.08,1.84.08,5.42s0,4-.08,5.42Z"/><path class="cls-2" d="M23.9,16.67a6.89,6.89,0,1,0,6.89,6.89,6.89,6.89,0,0,0-6.89-6.89ZM23.9,28a4.47,4.47,0,1,1,4.47-4.47A4.47,4.47,0,0,1,23.9,28Z"/><path class="cls-2" d="M32.67,16.4a1.61,1.61,0,1,1-1.61-1.61,1.61,1.61,0,0,1,1.61,1.61Z"/></g></g></svg>