<svg xmlns="http://www.w3.org/2000/svg" viewBox="0 0 48.06 48.06"><defs><style>.cls-1{fill:#333;}.cls-1,.cls-2{fill-rule:evenodd;}.cls-2{fill:#fff;}</style></defs><g id="Capa_2" data-name="Capa 2"><g id="Capa_1-2" data-name="Capa 1"><path class="cls-1" d="M48.06,24A24,24,0,1,1,24,0a24,24,0,0,1,24,24"/><path class="cls-2" d="M8.09,35a15.18,15.18,0,0,0,7.43-1.27A13.45,13.45,0,0,0,18.47,32,7.19,7.19,0,0,1,12,27.45c-.16-.41-.16-.41.3-.37a5.67,5.67,0,0,0,2.59-.18,8.61,8.61,0,0,1-1.69-.64,7.09,7.09,0,0,1-3.85-6c0-.33.07-.36.36-.22a6.63,6.63,0,0,0,2.8.73,11.07,11.07,0,0,1-1.21-1.08,7.2,7.2,0,0,1-1.13-8c.18-.35.25-.35.51,0A20.06,20.06,0,0,0,23,18.46c.53.08,1.08.11,1.61.18.34.07.39-.1.33-.38A7.11,7.11,0,0,1,36.89,11.9a.71.71,0,0,0,.76.18,14.46,14.46,0,0,0,3.76-1.46,1.55,1.55,0,0,0,.3-.18,7.16,7.16,0,0,1-3,3.91,14,14,0,0,0,3.81-1c.05.19-.08.29-.16.4a13.76,13.76,0,0,1-2.94,3,.52.52,0,0,0-.26.58A20.74,20.74,0,0,1,34.21,31.2a18.83,18.83,0,0,1-11.83,6.66A20.41,20.41,0,0,1,8.25,35.11.32.32,0,0,0,8.09,35"/></g></g></svg>